<svg width="1137" height="231" xmlns="http://www.w3.org/2000/svg">

 <g>
  <title>background</title>
  <rect fill="none" id="canvas_background" height="233" width="1139" y="-1" x="-1"/>
 </g>
 <g>
  <title>Layer 1</title>
  <g id="svg_19">
   <g id="svg_1">
    <path id="svg_2" d="m116.65,229.306c-29.375,0 -58.741,-11.179 -81.1,-33.53c-21.636,-21.639 -33.55,-50.446 -33.55,-81.118c0,-30.673 11.914,-59.481 33.55,-81.108c21.63,-21.632 50.435,-33.546 81.108,-33.546c30.67,-0.004 59.467,11.914 81.093,33.539l-4.937,4.937c-20.308,-20.313 -47.362,-31.5 -76.157,-31.497c-28.808,0 -55.862,11.184 -76.17,31.502c-20.322,20.311 -31.505,47.365 -31.505,76.173c0,28.806 11.184,55.863 31.505,76.182c42.001,41.992 110.329,41.992 152.327,-0.01c15.116,-15.109 25.222,-34.035 29.383,-54.93l-105.667,0l0,-6.974l113.929,0l-0.647,4.041c-3.842,23.951 -14.928,45.668 -32.06,62.799c-22.355,22.361 -51.734,33.54 -81.102,33.54z" fill="#ffffff"/>
    <g id="svg_3">
     <path id="svg_4" d="m200.59,146.713c-4.425,11.705 -11.228,22.458 -20.33,31.559c-35.068,35.07 -92.129,35.076 -127.216,0c-16.965,-16.965 -26.306,-39.555 -26.306,-63.614c0,-24.066 9.341,-46.655 26.306,-63.62c35.08,-35.071 92.148,-35.071 127.216,-0.004l4.933,-4.933c-37.793,-37.791 -99.286,-37.791 -137.082,0.005c-37.806,37.797 -37.806,99.303 0,137.102c18.893,18.9 43.717,28.351 68.539,28.351c24.813,0 49.653,-9.45 68.543,-28.351c10.45,-10.453 18.125,-22.916 22.828,-36.495l-7.431,0z" fill="#ffffff"/>
    </g>
    <g id="svg_5">
     <path id="svg_6" d="m181.341,146.713c-3.437,6.902 -7.979,13.336 -13.639,18.999c-13.644,13.639 -31.771,21.146 -51.052,21.146c-19.275,0 -37.416,-7.508 -51.044,-21.146c-13.644,-13.635 -21.154,-31.77 -21.154,-51.054c0,-19.288 7.511,-37.419 21.154,-51.061c28.139,-28.147 73.942,-28.149 102.096,0l4.935,-4.933c-30.873,-30.875 -81.1,-30.875 -111.968,0c-14.959,14.956 -23.202,34.843 -23.202,55.994c0,21.15 8.243,41.032 23.202,55.987c14.949,14.963 34.842,23.192 55.98,23.192c21.142,0 41.026,-8.229 55.987,-23.192c7.056,-7.053 12.574,-15.177 16.467,-23.932l-7.762,0z" fill="#ffffff"/>
    </g>
    <polygon id="svg_7" points="213.23001098632812,111.16496276855469 116.52999877929688,111.16496276855469 116.52999877929688,118.14599609375 220.20700073242188,118.14599609375 " fill="#ffffff"/>
    <polygon id="svg_8" points="195.47100830078125,93.39898681640625 116.52999877929688,93.39898681640625 116.52999877929688,100.38201904296875 202.45201110839844,100.38201904296875 " fill="#ffffff"/>
   </g>
   <g id="svg_9">
    <path id="svg_10" d="m1085.727,156.921l49.643,0l0,-7.257l-41.576,0l0,-31.241l37.158,0l0,-7.245l-37.158,0l0,-31.54l41.576,0l0,-7.25l-49.643,0l0,84.533z" fill="#ffffff"/>
   </g>
   <path id="svg_11" d="m1002.752,146.32c7.41,7.946 17.268,12.284 28.016,12.284c14.971,0 25.414,-9.699 25.414,-23.597c0,-7.733 -3.451,-13.777 -10.578,-18.473c-3.662,-2.44 -8.256,-4.386 -12.707,-6.27c-9.619,-4.075 -19.562,-8.287 -19.562,-17.842c0,-9.722 9.184,-14.975 17.824,-14.975c5.559,0 10.965,1.773 15.775,5.159l4.207,-5.194c-6.158,-4.498 -13.039,-6.773 -20.504,-6.773c-13.881,0 -24.762,9.395 -24.762,21.396c0,7.324 3.371,13.111 10.314,17.69c3.576,2.339 7.98,4.165 12.232,5.917c9.979,4.128 20.303,8.389 20.303,19.751c0,9.348 -8,16.398 -18.605,16.398c-10.037,0 -17.467,-5.243 -22.352,-10.425l-5.015,4.954z" fill="#ffffff"/>
   <polygon id="svg_12" points="909.1950073242188,89.76397705078125 974.8670043945312,158.2919921875 974.8670043945312,72.38800048828125 966.8009643554688,72.38800048828125 966.8009643554688,139.10000610351562 901.1309814453125,70.39398193359375 901.1309814453125,156.9210205078125 909.1950073242188,156.9210205078125 " fill="#ffffff"/>
   <polygon id="svg_13" points="820.8829956054688,156.9210205078125 870.5249633789062,156.9210205078125 870.5249633789062,149.66497802734375 828.9450073242188,149.66497802734375 828.9450073242188,118.42303466796875 866.1019897460938,118.42303466796875 866.1019897460938,111.17800903320312 828.9450073242188,111.17800903320312 828.9450073242188,79.63803100585938 870.5249633789062,79.63803100585938 870.5249633789062,72.38800048828125 820.8829956054688,72.38800048828125 " fill="#ffffff"/>
   <path id="svg_14" d="m738.412,146.32c7.416,7.946 17.273,12.284 28.021,12.284c14.965,0 25.414,-9.699 25.414,-23.597c0,-7.733 -3.455,-13.777 -10.576,-18.473c-3.668,-2.44 -8.262,-4.386 -12.713,-6.27c-9.617,-4.075 -19.557,-8.287 -19.557,-17.842c0,-9.722 9.178,-14.975 17.824,-14.975c5.555,0 10.959,1.773 15.771,5.159l4.211,-5.194c-6.16,-4.498 -13.045,-6.773 -20.51,-6.773c-13.883,0 -24.757,9.395 -24.757,21.396c0,7.324 3.366,13.111 10.315,17.69c3.572,2.339 7.977,4.165 12.227,5.917c9.98,4.128 20.305,8.389 20.305,19.751c0,9.348 -7.996,16.398 -18.607,16.398c-10.035,0 -17.467,-5.243 -22.349,-10.425l-5.019,4.954z" fill="#ffffff"/>
   <path id="svg_15" d="m702.379,83.278c-4.269,-3.907 -9.083,-6.711 -14.306,-8.321c-5.003,-1.715 -11.929,-2.569 -20.646,-2.569l-16.83,0l0,84.534l16.607,0c8.79,0 15.616,-0.795 20.292,-2.372c4.98,-1.566 9.79,-4.373 14.334,-8.373c9.134,-8.076 13.59,-18.388 13.59,-31.522c0,-13.11 -4.273,-23.376 -13.041,-31.377zm-6.084,57.267c-3.539,3.211 -7.555,5.583 -11.941,7.055c-4.348,1.376 -9.738,2.064 -16.102,2.064l-9.591,0l0,-70.026l9.591,0c12.242,0 21.726,3.014 28.177,8.955c7.173,6.673 10.804,15.434 10.804,26.061c-0.001,10.562 -3.68,19.271 -10.938,25.891z" fill="#ffffff"/>
   <path id="svg_16" d="m468.824,70.557c-24.342,0 -44.071,19.729 -44.071,44.067c0,24.334 19.729,44.066 44.071,44.066c24.34,0 44.069,-19.732 44.069,-44.066c0,-24.337 -19.729,-44.067 -44.069,-44.067zm0,80.5c-20.125,0 -36.436,-16.311 -36.436,-36.433c0,-20.123 16.31,-36.433 36.436,-36.433c20.122,0 36.434,16.31 36.434,36.433c0,20.123 -16.313,36.433 -36.434,36.433z" fill="#ffffff"/>
   <path id="svg_17" d="m580.11,70.557c-24.34,0 -44.069,19.729 -44.069,44.067c0,24.334 19.729,44.066 44.069,44.066c24.341,0 44.07,-19.732 44.07,-44.066c0.001,-24.337 -19.729,-44.067 -44.07,-44.067zm0,80.5c-20.125,0 -36.434,-16.311 -36.434,-36.433c0,-20.123 16.308,-36.433 36.434,-36.433c20.126,0 36.434,16.31 36.434,36.433c0,20.123 -16.308,36.433 -36.434,36.433z" fill="#ffffff"/>
   <path id="svg_18" d="m395.087,110.627l-32.612,0l0,8.059l32.382,0c-0.886,7.928 -4.358,15.624 -10.436,21.7c-14.229,14.231 -37.299,14.226 -51.526,0c-14.233,-14.234 -14.233,-37.298 -0.004,-51.527c14.228,-14.228 37.298,-14.228 51.527,0.003l5.397,-5.399c-17.212,-17.212 -45.112,-17.212 -62.321,-0.003c-17.212,17.208 -17.212,45.11 0,62.325c17.212,17.212 45.112,17.208 62.326,0c7.525,-7.529 11.761,-17.104 12.7,-26.937l0.017,-0.163l-7.45,-8.058z" fill="#ffffff"/>
  </g>
 </g>
</svg>
